<?xml version="1.0" standalone="no"?>
<!DOCTYPE svg PUBLIC "-//W3C//DTD SVG 20010904//EN"
 "http://www.w3.org/TR/2001/REC-SVG-20010904/DTD/svg10.dtd">
<svg version="1.0" xmlns="http://www.w3.org/2000/svg"
 width="2160.000000pt" height="2160.000000pt" viewBox="0 0 2160.000000 2160.000000"
 preserveAspectRatio="xMidYMid meet">
<metadata>
Created by potrace 1.14, written by Peter Selinger 2001-2017
</metadata>
<g transform="translate(0.000000,2160.000000) scale(0.100000,-0.100000)"
fill="#000000" stroke="none">
<path d="M2137 15414 c-1 -1 -45 -4 -97 -8 -127 -8 -172 -13 -271 -31 -46 -9
-97 -18 -114 -21 -43 -8 -208 -64 -222 -76 -7 -6 -13 -8 -13 -4 0 10 -75 -30
-160 -85 -84 -54 -187 -156 -242 -240 -115 -176 -190 -432 -213 -729 -2 -30
-5 -55 -5 -55 -7 0 -11 -327 -14 -1290 -2 -621 -7 -1150 -10 -1175 -8 -69 -16
-124 -23 -156 -3 -16 -7 -38 -8 -49 -2 -11 -4 -21 -5 -22 -2 -2 -4 -7 -5 -13
-1 -5 -3 -11 -5 -12 -1 -2 -4 -16 -6 -31 -23 -137 -174 -366 -286 -435 -16 -9
-28 -19 -28 -23 0 -4 -17 -16 -37 -27 -21 -10 -64 -33 -96 -51 -31 -17 -64
-31 -72 -31 -8 0 -15 -4 -15 -8 0 -5 -6 -9 -12 -10 -27 -2 -142 -50 -146 -61
-3 -9 21 -16 31 -8 2 1 10 -3 18 -9 8 -6 27 -14 43 -18 111 -27 329 -152 423
-244 40 -39 123 -164 123 -186 0 -9 4 -16 9 -16 4 0 14 -21 21 -47 7 -27 16
-52 19 -58 3 -5 6 -14 7 -20 1 -5 6 -28 12 -50 14 -51 28 -150 39 -255 2 -25
6 -533 9 -1130 5 -1153 6 -1250 14 -1250 3 0 5 -17 6 -38 1 -57 13 -185 24
-244 5 -29 11 -64 14 -78 4 -23 18 -94 22 -112 1 -5 2 -9 4 -10 2 -3 10 -34
14 -58 2 -8 8 -28 15 -43 6 -16 11 -33 11 -38 0 -5 4 -17 9 -27 4 -9 23 -48
41 -87 70 -152 194 -293 319 -363 13 -8 38 -22 55 -31 84 -48 286 -111 400
-126 27 -3 52 -8 55 -9 5 -3 72 -11 186 -21 61 -6 391 -15 380 -10 -5 2 -44
14 -85 26 -41 12 -109 38 -150 57 -41 20 -77 36 -80 36 -23 4 -162 112 -210
162 -113 121 -204 291 -235 437 -2 9 -6 21 -9 25 -2 4 -7 27 -11 52 -4 25 -9
48 -11 52 -2 4 -7 28 -9 55 -3 26 -7 62 -10 78 -15 103 -18 313 -19 1290 -1
622 -5 1096 -10 1104 -7 10 -6 12 4 6 8 -5 11 -4 7 2 -3 5 -9 41 -12 79 -8
106 -15 176 -21 209 -3 17 -7 41 -9 55 -10 70 -41 190 -66 260 -20 54 -69 160
-79 170 -3 3 -18 24 -34 48 -57 83 -187 197 -281 244 -22 12 -43 26 -47 32 -4
6 -8 8 -8 4 0 -4 -35 8 -77 26 -79 33 -180 70 -197 71 -19 0 -16 21 3 22 37 3
206 65 285 105 195 97 314 211 398 380 32 64 80 198 72 198 -3 0 0 9 6 19 5
11 12 37 16 58 3 21 8 47 11 57 3 11 7 35 9 54 2 20 6 50 9 69 3 19 7 73 10
121 3 48 7 99 9 115 2 15 -2 27 -8 27 -7 0 -8 3 -1 8 8 5 11 353 11 1112 1
1001 4 1209 19 1335 34 273 124 496 260 644 56 61 195 173 211 170 4 0 10 3
13 9 5 8 154 82 206 102 35 14 60 23 70 26 67 17 52 23 -53 22 -61 -1 -113 -2
-115 -4z"/>
<path d="M19275 15405 c22 -8 49 -19 60 -25 11 -5 26 -11 34 -12 52 -11 268
-133 331 -187 85 -74 157 -159 196 -231 10 -19 21 -37 24 -40 17 -17 80 -186
72 -194 -3 -4 1 -6 8 -6 7 0 11 -3 8 -6 -3 -3 0 -29 8 -57 16 -64 23 -99 30
-157 4 -25 9 -63 13 -85 4 -22 7 -68 6 -102 0 -35 2 -63 5 -63 3 0 5 -514 4
-1143 0 -682 3 -1150 9 -1161 7 -14 6 -16 -4 -11 -8 6 -10 4 -4 -4 4 -7 9 -38
11 -68 5 -88 19 -200 39 -311 9 -46 63 -208 84 -252 88 -180 223 -309 416
-400 121 -57 143 -66 227 -91 75 -22 85 -28 56 -33 -7 -1 -19 -5 -25 -9 -7 -5
-13 -5 -13 -1 0 3 -7 1 -15 -6 -8 -7 -15 -10 -15 -6 0 4 -13 0 -30 -9 -16 -9
-30 -13 -30 -11 0 3 -21 -4 -47 -16 -314 -134 -457 -272 -555 -533 -11 -27
-21 -57 -23 -65 -32 -133 -44 -191 -51 -260 -3 -25 -7 -56 -9 -70 -2 -14 -7
-70 -10 -125 -3 -54 -8 -101 -10 -104 -3 -2 0 -10 6 -18 6 -7 7 -13 3 -13 -6
0 -10 -448 -10 -1067 -1 -947 -4 -1191 -18 -1283 -1 -14 -7 -50 -11 -80 -4
-30 -9 -62 -11 -70 -2 -8 -10 -42 -18 -75 -18 -75 -36 -137 -44 -150 -4 -5 -7
-16 -8 -23 -4 -21 -72 -151 -107 -202 -57 -83 -235 -249 -251 -233 -3 3 -6 2
-6 -4 0 -6 -12 -16 -27 -22 -16 -6 -35 -15 -43 -21 -25 -17 -128 -60 -143 -60
-7 0 -17 -3 -21 -7 -3 -4 -12 -8 -19 -10 -7 -1 -34 -9 -62 -17 -48 -15 -41
-15 135 -10 188 6 275 11 275 14 0 1 11 3 25 5 14 2 48 6 75 10 28 3 61 8 75
10 14 2 25 4 25 5 0 1 11 3 25 5 33 3 131 30 201 54 60 20 191 81 199 91 3 4
16 13 28 19 52 28 212 184 212 208 0 7 3 13 8 13 4 0 19 21 32 48 14 26 29 50
33 53 5 3 9 12 11 20 1 8 11 32 20 54 22 47 83 259 91 313 3 21 7 47 9 58 2
12 7 45 11 75 34 256 36 363 40 1529 3 960 5 1122 21 1200 3 14 6 41 8 60 7
82 81 310 107 330 3 3 14 20 23 38 26 51 125 145 211 201 43 28 82 51 88 51 6
0 18 7 27 15 9 8 25 16 36 18 10 2 41 14 67 25 27 12 61 25 75 28 15 4 32 9
37 13 11 6 32 12 53 13 26 3 10 16 -40 33 -92 30 -308 133 -308 147 0 5 -5 8
-11 8 -27 0 -137 102 -200 185 -66 87 -136 253 -154 365 -4 25 -9 54 -12 65
-2 11 -6 29 -8 40 -3 12 -6 47 -7 78 -2 31 -7 57 -11 57 -4 0 -3 8 2 19 6 10
7 22 3 26 -4 3 -8 500 -9 1103 -1 603 -4 1135 -7 1182 -8 153 -19 257 -41 380
-8 43 -47 199 -56 225 -53 145 -105 246 -167 325 -53 66 -163 170 -181 170 -5
0 -11 4 -13 9 -7 21 -209 121 -273 136 -5 2 -35 10 -66 19 -61 18 -93 26 -124
31 -11 2 -22 4 -25 5 -3 1 -9 2 -14 1 -5 -1 -16 1 -25 5 -9 3 -32 8 -51 10
-19 3 -55 7 -80 10 -25 2 -61 7 -80 9 -19 2 -111 6 -205 9 -158 5 -167 4 -130
-9z"/>
<path d="M2544 12642 c2 -26 -1 -55 -6 -64 -4 -9 -4 -19 0 -22 10 -6 8 -73 -1
-82 -3 -4 -2 -17 4 -30 5 -14 8 -30 6 -37 -1 -7 11 -12 28 -14 38 -2 168 -11
265 -17 207 -15 245 -54 403 -421 49 -114 360 -846 417 -980 4 -11 19 -45 33
-76 14 -31 76 -175 137 -320 62 -145 123 -288 136 -317 13 -29 24 -55 24 -57
0 -3 9 -24 19 -48 11 -23 61 -139 111 -257 50 -118 97 -228 105 -245 7 -16 38
-91 69 -165 31 -74 63 -148 71 -165 8 -16 35 -79 61 -140 25 -60 52 -123 59
-140 7 -16 32 -75 55 -130 23 -55 62 -145 86 -199 24 -55 44 -105 44 -113 0
-7 4 -13 10 -13 5 0 9 -3 8 -7 -2 -7 137 -343 202 -488 10 -22 30 -69 45 -105
15 -36 31 -70 36 -76 6 -8 88 -11 260 -11 l250 1 13 25 c7 14 19 44 25 66 7
22 16 49 21 60 5 11 23 58 40 105 17 47 40 108 50 135 11 28 20 53 20 56 0 4
8 24 17 45 9 22 18 44 19 49 1 6 12 35 24 65 12 30 23 60 24 65 1 6 10 28 20
49 9 22 19 51 23 65 3 14 12 35 19 46 8 11 14 28 14 37 0 10 4 26 10 36 5 9
27 62 49 117 35 90 84 203 159 365 14 30 26 57 27 60 2 8 65 143 75 162 6 10
10 25 10 33 0 8 4 15 10 15 5 0 9 3 8 8 -1 4 9 30 21 57 63 134 124 268 126
275 0 3 14 32 29 65 15 33 34 74 41 90 8 17 29 64 48 105 138 302 257 569 257
579 0 6 5 11 10 11 6 0 10 5 10 11 0 5 11 35 25 65 14 30 37 80 51 112 14 31
38 84 54 117 15 33 38 85 51 115 12 30 28 58 33 62 6 4 8 8 3 8 -4 0 6 27 23
60 16 33 30 66 30 75 0 8 5 15 10 15 6 0 10 5 10 11 0 6 16 46 36 88 20 42 46
101 59 131 61 144 175 358 254 480 47 73 46 71 121 148 82 84 155 121 250 127
14 1 79 5 145 10 148 9 146 9 280 1 210 -13 259 -20 298 -45 47 -29 85 -67
103 -104 9 -18 20 -34 23 -37 8 -6 50 -93 53 -112 2 -7 5 -15 8 -18 5 -4 31
-57 35 -70 3 -11 97 -231 125 -295 10 -22 36 -85 60 -140 49 -118 67 -159 86
-200 37 -81 107 -251 107 -262 0 -7 4 -13 8 -13 4 0 13 -17 20 -37 6 -21 15
-42 19 -48 4 -5 10 -19 13 -30 3 -11 33 -83 67 -160 34 -77 63 -144 64 -150 2
-5 11 -28 21 -50 28 -64 38 -89 41 -104 1 -8 9 -18 16 -22 7 -5 9 -9 5 -9 -4
0 -2 -10 5 -22 7 -13 13 -25 13 -28 0 -3 11 -27 23 -54 12 -27 22 -54 22 -61
0 -8 4 -15 10 -17 5 -1 11 -12 13 -23 2 -11 16 -46 30 -79 15 -32 27 -60 27
-62 0 -2 9 -23 20 -47 27 -60 161 -370 164 -382 1 -5 9 -26 18 -45 17 -39 160
-374 173 -405 4 -11 7 -23 7 -27 -1 -5 2 -8 8 -8 6 0 9 -3 8 -7 -1 -5 5 -24
14 -43 8 -19 27 -64 42 -100 15 -36 35 -83 45 -105 11 -22 31 -69 46 -105 15
-36 33 -80 41 -97 25 -58 41 -96 73 -173 31 -74 71 -167 97 -225 8 -16 34 -79
60 -140 25 -60 52 -123 59 -140 7 -16 23 -55 36 -85 44 -107 15 -97 300 -97
l251 0 20 46 c11 25 21 53 23 61 2 8 4 16 5 18 2 1 3 6 4 10 0 4 9 26 18 47 9
22 31 81 48 130 18 50 43 115 55 147 13 31 21 59 18 62 -4 3 -1 6 6 6 7 0 10
4 6 9 -3 5 -1 12 4 15 4 3 11 19 14 35 4 16 15 49 26 73 10 24 31 77 46 118
15 41 31 79 36 84 4 5 5 15 2 22 -3 8 0 14 6 14 6 0 10 3 9 8 -3 6 11 45 32
97 45 104 74 181 72 188 -1 4 2 7 8 7 5 0 10 5 10 10 0 6 15 43 34 83 74 157
98 213 102 232 2 11 8 21 14 23 5 2 10 8 10 13 0 6 10 31 21 57 55 119 82 180
100 216 10 22 19 46 19 53 0 7 5 13 10 13 6 0 9 3 8 8 -2 9 5 24 92 212 39 85
73 160 74 165 1 6 16 39 33 75 17 36 38 83 48 105 10 22 34 76 55 120 20 44
44 96 53 115 19 44 54 120 129 285 33 72 66 144 73 160 8 17 44 95 80 175 37
80 72 160 78 178 6 17 14 32 19 32 4 0 8 6 8 13 0 8 14 41 30 75 17 34 30 65
30 69 0 25 202 409 265 503 140 209 228 273 398 285 34 3 89 7 122 10 103 9
248 6 435 -10 165 -13 209 -51 316 -272 41 -83 74 -156 74 -161 0 -5 6 -22 14
-38 26 -52 59 -129 60 -139 1 -5 12 -32 24 -60 13 -27 28 -59 32 -70 5 -11 20
-46 34 -77 14 -31 26 -60 26 -63 0 -3 9 -27 21 -52 11 -25 54 -124 95 -221 41
-98 82 -192 89 -209 8 -18 22 -50 31 -70 9 -21 20 -47 25 -58 4 -11 19 -46 33
-77 14 -32 22 -58 18 -58 -4 0 -2 -4 3 -8 6 -4 37 -70 69 -147 33 -77 68 -160
79 -185 10 -25 25 -58 32 -75 7 -16 20 -48 30 -70 10 -22 23 -53 30 -70 7 -16
19 -46 28 -65 8 -19 34 -80 57 -135 23 -55 50 -118 60 -140 10 -22 56 -130
103 -240 47 -110 93 -218 102 -240 10 -22 19 -44 21 -50 2 -9 59 -142 98 -230
12 -26 30 -69 81 -190 7 -16 22 -50 33 -75 26 -60 123 -289 127 -300 3 -10 23
-56 44 -103 54 -122 61 -137 61 -142 0 -2 11 -28 24 -57 13 -29 42 -96 64
-148 22 -52 48 -113 57 -136 l18 -41 257 0 256 1 21 55 c11 31 35 97 53 146
17 50 38 104 45 120 7 17 20 55 30 85 10 30 21 60 25 65 4 6 19 44 33 85 14
41 58 158 97 260 40 102 81 212 93 245 12 33 25 62 30 63 4 2 7 8 7 14 0 6 10
32 22 57 11 25 31 69 44 96 12 28 41 89 63 138 23 48 41 89 41 91 0 2 17 42
39 88 62 134 84 183 81 183 -1 0 11 25 27 55 17 30 30 59 31 63 0 4 9 27 20
50 11 23 29 62 40 87 11 25 37 81 57 125 51 112 58 129 57 138 -1 4 3 7 8 7 6
0 10 5 10 11 0 5 11 34 24 62 13 29 34 75 46 102 12 28 38 84 57 125 19 41 42
91 50 110 9 19 28 62 43 95 15 33 34 76 43 95 8 19 29 65 46 103 17 37 31 72
31 77 0 6 5 10 10 10 6 0 10 5 10 12 0 11 115 270 206 466 24 51 44 95 44 97
0 3 20 47 45 98 25 52 45 99 45 105 0 6 3 12 8 14 4 2 23 34 42 73 43 87 100
186 117 203 7 7 13 20 13 28 0 8 4 14 8 14 4 0 16 14 26 30 50 86 185 192 271
215 33 9 35 9 220 20 72 4 133 9 137 11 7 5 8 260 1 280 -2 6 -16 9 -31 7 -15
-2 -76 -5 -137 -7 -60 -3 -186 -8 -280 -12 -220 -10 -761 -10 -985 0 -96 4
-230 9 -298 11 -68 2 -127 7 -132 10 -6 4 -10 2 -10 -3 0 -5 -12 -7 -26 -4
-24 4 -26 2 -22 -21 3 -14 2 -31 -3 -38 -4 -7 -3 -23 2 -36 5 -14 5 -23 -1
-23 -5 0 -7 -7 -3 -17 8 -20 8 -81 1 -89 -3 -3 -3 -17 1 -32 5 -19 14 -27 32
-28 13 -1 87 -5 164 -8 312 -15 330 -18 393 -71 60 -50 75 -97 74 -230 -1
-135 -23 -245 -92 -455 -36 -110 -55 -162 -101 -275 -7 -16 -13 -34 -15 -40
-3 -12 -161 -411 -174 -440 -27 -59 -190 -483 -190 -493 0 -7 -3 -12 -8 -12
-4 0 -12 -17 -19 -37 -6 -21 -20 -56 -29 -78 -10 -22 -18 -42 -19 -45 -1 -3
-6 -16 -12 -30 -6 -14 -26 -61 -44 -105 -18 -44 -36 -82 -39 -85 -3 -3 -6 -12
-8 -20 -2 -8 -14 -38 -28 -67 -13 -28 -24 -54 -24 -56 0 -2 -14 -35 -32 -73
-17 -38 -32 -71 -33 -74 0 -3 -8 -22 -18 -42 -9 -21 -23 -53 -31 -70 -13 -29
-54 -120 -141 -313 -42 -93 -77 -169 -140 -308 l-59 -129 -23 52 c-13 29 -23
59 -23 66 0 8 -4 14 -10 14 -5 0 -9 3 -8 8 3 7 -95 251 -163 407 -47 109 -76
185 -71 189 3 4 0 6 -6 6 -7 0 -12 7 -12 15 0 8 -4 23 -10 33 -5 9 -26 57 -45
105 -20 48 -41 100 -47 115 -6 15 -12 29 -13 32 -1 3 -6 16 -12 30 -6 14 -20
48 -31 75 -11 28 -28 68 -38 90 -10 22 -19 46 -20 54 -1 7 -7 18 -13 24 -6 6
-11 16 -11 23 0 6 -12 38 -27 70 -15 33 -28 62 -29 67 -1 4 -3 9 -4 12 -1 3
-3 8 -5 13 -2 9 -18 48 -50 122 -12 30 -33 80 -45 110 -13 30 -30 71 -38 90
-9 19 -17 38 -18 43 -1 4 -3 10 -4 15 -1 4 -2 10 -1 15 0 4 -4 7 -9 7 -6 0
-10 6 -10 13 0 11 -41 111 -153 377 -5 14 -11 30 -12 35 -2 6 -12 31 -23 55
-11 25 -40 95 -65 155 -83 203 -169 410 -188 452 -10 23 -19 50 -19 61 0 10
-3 22 -7 26 -4 3 -8 12 -9 19 -1 7 -10 40 -19 75 -9 35 -14 70 -11 78 3 8 2
14 -2 14 -11 0 -7 121 6 151 21 51 75 92 135 104 10 2 27 7 37 10 10 3 60 8
112 10 155 7 391 17 426 18 22 0 32 5 33 16 0 9 0 72 0 140 0 130 -4 143 -45
135 -12 -3 -82 -6 -156 -9 -74 -2 -236 -7 -360 -11 -300 -10 -994 -10 -1255 0
-279 10 -457 17 -475 16 -8 0 -33 0 -55 1 -22 1 -44 1 -50 0 -5 0 -64 -3 -130
-5 -66 -3 -203 -8 -305 -12 -225 -10 -746 -10 -965 -1 -88 4 -222 9 -297 12
-76 3 -141 5 -145 6 -43 7 -44 5 -42 -130 0 -71 -2 -134 -6 -140 -7 -13 -6
-13 55 -17 203 -12 265 -15 331 -19 112 -6 162 -22 214 -67 25 -22 44 -43 41
-46 -3 -2 2 -18 11 -35 11 -21 16 -58 16 -117 0 -71 -8 -185 -13 -185 -2 0 -6
-17 -15 -65 -9 -44 -9 -45 -24 -100 -16 -55 -79 -248 -91 -275 -4 -11 -23 -58
-40 -105 -18 -47 -39 -98 -45 -115 -14 -32 -27 -67 -30 -75 -1 -3 -9 -23 -19
-45 -10 -22 -19 -44 -20 -50 -1 -5 -4 -14 -7 -20 -4 -5 -12 -28 -19 -50 -7
-22 -16 -44 -20 -50 -5 -8 -41 -97 -46 -115 0 -3 -7 -21 -14 -40 -8 -19 -12
-37 -11 -39 1 -2 -1 -7 -6 -10 -5 -3 -17 -28 -28 -56 -10 -27 -24 -65 -32 -82
-7 -18 -13 -35 -14 -38 0 -2 -23 -60 -50 -127 -28 -68 -52 -130 -54 -138 -2
-8 -14 -37 -26 -65 -13 -27 -24 -52 -24 -55 -1 -3 -8 -18 -15 -35 -7 -16 -14
-32 -15 -35 -3 -10 -27 -65 -40 -95 -19 -43 -51 -118 -55 -130 -7 -23 -53
-125 -125 -280 -20 -44 -38 -84 -39 -90 -2 -5 -12 -30 -23 -55 -11 -25 -42
-92 -68 -150 -26 -58 -54 -118 -63 -135 -9 -16 -17 -34 -18 -40 -1 -5 -19 -46
-40 -90 -21 -44 -38 -82 -39 -85 0 -3 -9 -19 -18 -37 -9 -18 -17 -39 -17 -48
0 -8 -4 -15 -9 -15 -5 0 -12 -12 -16 -27 -7 -27 -8 -26 -31 26 -13 29 -24 60
-24 67 0 8 -4 14 -10 14 -5 0 -10 6 -10 14 0 12 -24 73 -75 191 -10 22 -19 46
-21 53 -1 8 -10 29 -18 48 -17 36 -43 96 -56 129 -9 23 -42 102 -140 339 -38
94 -70 176 -70 183 0 7 -4 13 -10 13 -5 0 -10 7 -10 15 0 8 -9 34 -19 57 -31
68 -48 109 -69 163 -10 28 -23 59 -27 70 -4 11 -7 23 -7 28 1 4 -2 7 -7 7 -5
0 -11 10 -14 23 -4 19 -121 307 -146 362 -28 58 -51 119 -51 131 0 8 -4 14
-10 14 -5 0 -10 7 -10 15 0 8 -10 37 -21 63 -30 66 -43 97 -74 177 -15 39 -33
84 -40 100 -27 61 -90 210 -90 215 -1 3 -9 22 -18 44 -9 21 -17 40 -17 42 0 2
-9 26 -21 52 -34 76 -36 81 -90 212 -28 69 -52 130 -53 135 -1 6 -4 15 -8 20
-3 6 -15 49 -27 96 -23 96 -32 208 -20 254 13 47 58 90 121 113 59 22 103 26
408 38 147 5 204 9 220 13 3 0 4 56 3 124 -2 168 -2 169 -12 162 -5 -3 -92 -7
-193 -10 -101 -2 -271 -7 -378 -11 -250 -9 -997 -9 -1250 0 -107 4 -254 9
-327 11 -73 2 -137 6 -143 10 -5 3 -10 2 -10 -4 0 -6 -11 -6 -29 -1 -16 4 -32
6 -34 4 -2 -3 -67 -7 -143 -9 -77 -2 -211 -7 -299 -11 -204 -9 -796 -9 -985
-1 -80 4 -212 9 -294 12 -81 3 -152 8 -157 11 -5 3 -9 0 -9 -6 0 -6 -4 -9 -9
-6 -5 3 -11 -17 -13 -45 -1 -28 0 -53 4 -55 4 -3 3 -16 -2 -29 -5 -13 -5 -27
-1 -30 5 -3 6 -20 2 -37 -4 -18 -5 -44 -1 -58 5 -20 12 -25 40 -26 74 -3 289
-15 365 -20 149 -10 234 -71 253 -184 11 -64 6 -184 -11 -270 -19 -91 -29
-137 -34 -150 -3 -8 -8 -24 -10 -35 -2 -11 -19 -65 -38 -120 -19 -55 -37 -107
-39 -115 -5 -19 -142 -364 -162 -407 -7 -17 -14 -36 -14 -42 0 -6 -4 -19 -10
-29 -5 -9 -28 -64 -50 -122 -22 -58 -45 -115 -50 -127 -6 -13 -14 -33 -20 -45
-5 -13 -26 -66 -46 -118 -20 -52 -42 -108 -49 -125 -16 -38 -39 -98 -41 -105
0 -3 -6 -18 -12 -33 -7 -16 -22 -52 -33 -80 -37 -90 -50 -121 -70 -159 -10
-21 -16 -38 -13 -38 3 0 -2 -12 -10 -27 -13 -24 -44 -95 -91 -208 -7 -16 -27
-60 -44 -97 -17 -37 -31 -69 -31 -72 0 -3 -13 -33 -29 -68 -16 -35 -35 -78
-42 -95 -8 -18 -17 -33 -20 -33 -3 0 -6 -6 -6 -12 -1 -15 -45 -121 -54 -128
-3 -3 -13 -23 -21 -45 -9 -22 -32 -75 -52 -117 -73 -159 -103 -224 -122 -270
-10 -27 -23 -47 -28 -45 -4 1 -41 81 -80 177 -94 227 -89 214 -90 220 -1 3 -7
15 -14 28 -7 12 -10 22 -6 22 3 0 2 6 -4 13 -6 6 -25 48 -42 92 -17 44 -36 86
-42 93 -6 6 -7 12 -3 12 4 0 0 11 -9 25 -9 14 -14 25 -11 25 3 0 -3 17 -14 39
-11 21 -17 41 -14 45 4 3 1 6 -5 6 -7 0 -11 3 -10 8 1 8 -3 18 -38 99 -12 28
-20 54 -16 57 3 3 0 6 -6 6 -7 0 -12 7 -12 15 0 8 -4 23 -9 33 -8 15 -19 42
-42 97 -4 11 -22 50 -38 88 -16 37 -31 71 -32 75 -2 11 -19 55 -28 77 -5 11
-18 41 -30 67 -12 26 -21 50 -21 52 0 2 -8 21 -17 42 -9 22 -17 41 -18 44 -2
8 -24 63 -34 85 -31 70 -42 96 -61 145 -30 76 -49 120 -68 155 -9 17 -15 32
-14 35 2 4 -17 53 -73 185 -44 106 -59 143 -71 170 -44 104 -88 221 -86 228 1
4 -2 7 -6 7 -4 0 -14 17 -21 38 -8 20 -31 80 -53 132 -22 52 -44 105 -49 118
-5 12 -13 32 -18 45 -5 12 -18 43 -29 68 -11 25 -28 72 -37 105 -15 57 -18 68
-31 127 -10 49 -12 147 -3 180 24 88 110 132 276 142 69 4 371 16 446 18 27 1
27 1 28 71 1 127 0 207 -5 214 -4 6 -61 8 -61 2 0 -1 -56 -3 -125 -5 -69 -1
-237 -6 -375 -11 -295 -10 -973 -10 -1235 0 -102 3 -263 8 -358 11 -96 3 -178
7 -183 10 -5 4 -9 1 -9 -5 0 -7 -6 -8 -19 -1 -17 10 -18 7 -17 -37z"/>
</g>
</svg>
